<?xml version="1.0" encoding="UTF-8" standalone="no"?>
<!DOCTYPE svg PUBLIC "-//W3C//DTD SVG 1.1//EN"
 "http://www.w3.org/Graphics/SVG/1.1/DTD/svg11.dtd">
<!-- Generated by graphviz version 2.47.1 (20210417.1919)
 -->
<!-- Title: Máquina de Turing que aceita sequências binárias que garante dois 0&#39;s Pages: 1 -->
<svg width="439pt" height="179pt"
 viewBox="0.00 0.00 438.70 178.85" xmlns="http://www.w3.org/2000/svg" xmlns:xlink="http://www.w3.org/1999/xlink">
<g id="graph0" class="graph" transform="scale(1 1) rotate(0) translate(4 174.85)">
<title>Máquina de Turing que aceita sequências binárias que garante dois 0&#39;s</title>
<polygon fill="white" stroke="transparent" points="-4,4 -4,-174.85 434.7,-174.85 434.7,4 -4,4"/>
<!-- Start -->
<g id="node1" class="node">
<title>Start</title>
</g>
<!-- A -->
<g id="node2" class="node">
<title>A</title>
<ellipse fill="none" stroke="black" cx="109" cy="-132.85" rx="18" ry="18"/>
<text text-anchor="middle" x="109" y="-129.15" font-family="Times New Roman,serif" font-size="14.00">A</text>
</g>
<!-- Start&#45;&gt;A -->
<g id="edge1" class="edge">
<title>Start&#45;&gt;A</title>
<path fill="none" stroke="black" d="M54.19,-132.85C62.65,-132.85 72.05,-132.85 80.6,-132.85"/>
<polygon fill="black" stroke="black" points="90.83,-132.85 80.83,-137.35 85.83,-132.85 80.83,-132.85 80.83,-132.85 80.83,-132.85 85.83,-132.85 80.83,-128.35 90.83,-132.85 90.83,-132.85"/>
</g>
<!-- D -->
<g id="node3" class="node">
<title>D</title>
<ellipse fill="none" stroke="black" cx="407.85" cy="-113.85" rx="18" ry="18"/>
<text text-anchor="middle" x="407.85" y="-110.15" font-family="Times New Roman,serif" font-size="14.00">D</text>
</g>
<!-- A&#45;&gt;D -->
<g id="edge2" class="edge">
<title>A&#45;&gt;D</title>
<path fill="none" stroke="black" d="M126.33,-138.18C142.34,-143.11 167.55,-150.08 190,-152.85 268.73,-162.54 290.58,-151.14 367,-129.85 371.86,-128.49 376.94,-126.74 381.77,-124.89"/>
<polygon fill="black" stroke="black" points="391.23,-121.05 383.65,-128.98 386.59,-122.93 381.96,-124.81 381.96,-124.81 381.96,-124.81 386.59,-122.93 380.27,-120.64 391.23,-121.05 391.23,-121.05"/>
<text text-anchor="middle" x="257.5" y="-159.65" font-family="Times New Roman,serif" font-size="14.00">11R</text>
</g>
<!-- B -->
<g id="node4" class="node">
<title>B</title>
<ellipse fill="none" stroke="black" cx="208" cy="-92.85" rx="18" ry="18"/>
<text text-anchor="middle" x="208" y="-89.15" font-family="Times New Roman,serif" font-size="14.00">B</text>
</g>
<!-- A&#45;&gt;B -->
<g id="edge3" class="edge">
<title>A&#45;&gt;B</title>
<path fill="none" stroke="black" d="M126.02,-126.24C141.04,-120.05 163.76,-110.68 181.32,-103.44"/>
<polygon fill="black" stroke="black" points="190.96,-99.46 183.43,-107.44 186.34,-101.37 181.71,-103.28 181.71,-103.28 181.71,-103.28 186.34,-101.37 180,-99.12 190.96,-99.46 190.96,-99.46"/>
<text text-anchor="middle" x="158.5" y="-121.65" font-family="Times New Roman,serif" font-size="14.00">0XR</text>
</g>
<!-- B&#45;&gt;D -->
<g id="edge5" class="edge">
<title>B&#45;&gt;D</title>
<path fill="none" stroke="black" d="M225.25,-98.07C231.11,-99.8 237.81,-101.6 244,-102.85 297.84,-113.73 312.08,-115.54 367,-114.85 371.09,-114.8 375.41,-114.72 379.64,-114.62"/>
<polygon fill="black" stroke="black" points="389.79,-114.37 379.9,-119.12 384.79,-114.49 379.79,-114.62 379.79,-114.62 379.79,-114.62 384.79,-114.49 379.68,-110.12 389.79,-114.37 389.79,-114.37"/>
<text text-anchor="middle" x="307" y="-118.65" font-family="Times New Roman,serif" font-size="14.00">$$R</text>
</g>
<!-- B&#45;&gt;B -->
<g id="edge4" class="edge">
<title>B&#45;&gt;B</title>
<path fill="none" stroke="black" d="M199.64,-109.14C197.62,-119.24 200.41,-128.85 208,-128.85 212.86,-128.85 215.76,-124.9 216.68,-119.41"/>
<polygon fill="black" stroke="black" points="216.36,-109.14 221.17,-119 216.52,-114.14 216.67,-119.13 216.67,-119.13 216.67,-119.13 216.52,-114.14 212.17,-119.27 216.36,-109.14 216.36,-109.14"/>
<text text-anchor="middle" x="208" y="-132.65" font-family="Times New Roman,serif" font-size="14.00">1YR</text>
</g>
<!-- C -->
<g id="node5" class="node">
<title>C</title>
<ellipse fill="none" stroke="black" cx="307" cy="-67.85" rx="18" ry="18"/>
<text text-anchor="middle" x="307" y="-64.15" font-family="Times New Roman,serif" font-size="14.00">C</text>
</g>
<!-- B&#45;&gt;C -->
<g id="edge6" class="edge">
<title>B&#45;&gt;C</title>
<path fill="none" stroke="black" d="M225.9,-88.49C240.64,-84.69 262.29,-79.12 279.36,-74.71"/>
<polygon fill="black" stroke="black" points="289.3,-72.15 280.74,-79.01 284.46,-73.4 279.61,-74.65 279.61,-74.65 279.61,-74.65 284.46,-73.4 278.49,-70.29 289.3,-72.15 289.3,-72.15"/>
<text text-anchor="middle" x="257.5" y="-87.65" font-family="Times New Roman,serif" font-size="14.00">0XR</text>
</g>
<!-- C&#45;&gt;D -->
<g id="edge7" class="edge">
<title>C&#45;&gt;D</title>
<path fill="none" stroke="black" d="M323.88,-75.24C339.61,-82.56 363.92,-93.87 382.17,-102.36"/>
<polygon fill="black" stroke="black" points="391.33,-106.63 380.37,-106.49 386.8,-104.52 382.27,-102.41 382.27,-102.41 382.27,-102.41 386.8,-104.52 384.16,-98.33 391.33,-106.63 391.33,-106.63"/>
<text text-anchor="middle" x="355" y="-99.65" font-family="Times New Roman,serif" font-size="14.00">11R</text>
</g>
<!-- C&#45;&gt;D -->
<g id="edge8" class="edge">
<title>C&#45;&gt;D</title>
<path fill="none" stroke="black" d="M324.57,-63.84C336.86,-61.72 353.71,-60.69 367,-66.85 377.45,-71.69 386.15,-80.76 392.73,-89.66"/>
<polygon fill="black" stroke="black" points="398.38,-97.99 389.04,-92.24 395.57,-93.85 392.77,-89.71 392.77,-89.71 392.77,-89.71 395.57,-93.85 396.49,-87.18 398.38,-97.99 398.38,-97.99"/>
<text text-anchor="middle" x="355" y="-70.65" font-family="Times New Roman,serif" font-size="14.00">00R</text>
</g>
<!-- ha -->
<g id="node6" class="node">
<title>ha</title>
<ellipse fill="none" stroke="black" cx="407.85" cy="-22.85" rx="18.72" ry="18.72"/>
<ellipse fill="none" stroke="black" cx="407.85" cy="-22.85" rx="22.7" ry="22.7"/>
<text text-anchor="middle" x="407.85" y="-19.15" font-family="Times New Roman,serif" font-size="14.00">ha</text>
</g>
<!-- C&#45;&gt;ha -->
<g id="edge9" class="edge">
<title>C&#45;&gt;ha</title>
<path fill="none" stroke="black" d="M316.01,-51.77C321.96,-41.76 331.09,-29.71 343,-23.85 352.77,-19.04 364.45,-17.77 375.13,-18.04"/>
<polygon fill="black" stroke="black" points="385.37,-18.74 375.08,-22.55 380.38,-18.4 375.39,-18.06 375.39,-18.06 375.39,-18.06 380.38,-18.4 375.7,-13.57 385.37,-18.74 385.37,-18.74"/>
<text text-anchor="middle" x="355" y="-27.65" font-family="Times New Roman,serif" font-size="14.00">$$R</text>
</g>
</g>
</svg>
