<?xml version="1.0" encoding="UTF-8" standalone="no"?>
<!DOCTYPE svg PUBLIC "-//W3C//DTD SVG 1.1//EN"
 "http://www.w3.org/Graphics/SVG/1.1/DTD/svg11.dtd">
<!-- Generated by graphviz version 2.47.1 (20210417.1919)
 -->
<!-- Title: Máquina de Turing que aceita sequências binárias com mais 0&#39;s que 1&#39;s Pages: 1 -->
<svg width="341pt" height="239pt"
 viewBox="0.00 0.00 340.70 239.00" xmlns="http://www.w3.org/2000/svg" xmlns:xlink="http://www.w3.org/1999/xlink">
<g id="graph0" class="graph" transform="scale(1 1) rotate(0) translate(4 235)">
<title>Máquina de Turing que aceita sequências binárias com mais 0&#39;s que 1&#39;s</title>
<polygon fill="white" stroke="transparent" points="-4,4 -4,-235 336.7,-235 336.7,4 -4,4"/>
<!-- Start -->
<g id="node1" class="node">
<title>Start</title>
</g>
<!-- A -->
<g id="node2" class="node">
<title>A</title>
<ellipse fill="none" stroke="black" cx="109" cy="-60" rx="18" ry="18"/>
<text text-anchor="middle" x="109" y="-56.3" font-family="Times New Roman,serif" font-size="14.00">A</text>
</g>
<!-- Start&#45;&gt;A -->
<g id="edge1" class="edge">
<title>Start&#45;&gt;A</title>
<path fill="none" stroke="black" d="M54.19,-60C62.65,-60 72.05,-60 80.6,-60"/>
<polygon fill="black" stroke="black" points="90.83,-60 80.83,-64.5 85.83,-60 80.83,-60 80.83,-60 80.83,-60 85.83,-60 80.83,-55.5 90.83,-60 90.83,-60"/>
</g>
<!-- A&#45;&gt;A -->
<g id="edge2" class="edge">
<title>A&#45;&gt;A</title>
<path fill="none" stroke="black" d="M102.62,-77.04C101.32,-86.86 103.45,-96 109,-96 112.47,-96 114.6,-92.43 115.4,-87.35"/>
<polygon fill="black" stroke="black" points="115.38,-77.04 119.9,-87.03 115.39,-82.04 115.4,-87.04 115.4,-87.04 115.4,-87.04 115.39,-82.04 110.9,-87.05 115.38,-77.04 115.38,-77.04"/>
<text text-anchor="middle" x="109" y="-99.8" font-family="Times New Roman,serif" font-size="14.00">XXR</text>
</g>
<!-- B -->
<g id="node4" class="node">
<title>B</title>
<ellipse fill="none" stroke="black" cx="208" cy="-147" rx="18" ry="18"/>
<text text-anchor="middle" x="208" y="-143.3" font-family="Times New Roman,serif" font-size="14.00">B</text>
</g>
<!-- A&#45;&gt;B -->
<g id="edge3" class="edge">
<title>A&#45;&gt;B</title>
<path fill="none" stroke="black" d="M123.08,-71.73C139.37,-86.34 167.38,-111.47 186.52,-128.64"/>
<polygon fill="black" stroke="black" points="194.13,-135.45 183.68,-132.13 190.4,-132.11 186.68,-128.78 186.68,-128.78 186.68,-128.78 190.4,-132.11 189.69,-125.43 194.13,-135.45 194.13,-135.45"/>
<text text-anchor="middle" x="158.5" y="-116.8" font-family="Times New Roman,serif" font-size="14.00">0XR</text>
</g>
<!-- C -->
<g id="node5" class="node">
<title>C</title>
<ellipse fill="none" stroke="black" cx="208" cy="-60" rx="18" ry="18"/>
<text text-anchor="middle" x="208" y="-56.3" font-family="Times New Roman,serif" font-size="14.00">C</text>
</g>
<!-- A&#45;&gt;C -->
<g id="edge7" class="edge">
<title>A&#45;&gt;C</title>
<path fill="none" stroke="black" d="M127.34,-60C141.82,-60 162.74,-60 179.5,-60"/>
<polygon fill="black" stroke="black" points="189.81,-60 179.81,-64.5 184.81,-60 179.81,-60 179.81,-60 179.81,-60 184.81,-60 179.81,-55.5 189.81,-60 189.81,-60"/>
<text text-anchor="middle" x="158.5" y="-63.8" font-family="Times New Roman,serif" font-size="14.00">1XR</text>
</g>
<!-- D -->
<g id="node3" class="node">
<title>D</title>
<ellipse fill="none" stroke="black" cx="309.85" cy="-18" rx="18" ry="18"/>
<text text-anchor="middle" x="309.85" y="-14.3" font-family="Times New Roman,serif" font-size="14.00">D</text>
</g>
<!-- D&#45;&gt;A -->
<g id="edge13" class="edge">
<title>D&#45;&gt;A</title>
<path fill="none" stroke="black" d="M292.01,-15.5C268.7,-12.6 225.46,-9.26 190,-18 169.44,-23.07 148.32,-34.47 132.95,-44.12"/>
<polygon fill="black" stroke="black" points="124.17,-49.82 130.1,-40.6 128.36,-47.1 132.56,-44.37 132.56,-44.37 132.56,-44.37 128.36,-47.1 135.01,-48.14 124.17,-49.82 124.17,-49.82"/>
<text text-anchor="middle" x="208" y="-21.8" font-family="Times New Roman,serif" font-size="14.00">$$R</text>
</g>
<!-- D&#45;&gt;D -->
<g id="edge10" class="edge">
<title>D&#45;&gt;D</title>
<path fill="none" stroke="black" d="M306.73,-35.78C306.2,-45.31 307.24,-54 309.85,-54 311.44,-54 312.44,-50.77 312.87,-46.1"/>
<polygon fill="black" stroke="black" points="312.96,-35.78 317.37,-45.82 312.92,-40.78 312.87,-45.78 312.87,-45.78 312.87,-45.78 312.92,-40.78 308.37,-45.74 312.96,-35.78 312.96,-35.78"/>
<text text-anchor="middle" x="309.85" y="-57.8" font-family="Times New Roman,serif" font-size="14.00">00L</text>
</g>
<!-- D&#45;&gt;D -->
<g id="edge11" class="edge">
<title>D&#45;&gt;D</title>
<path fill="none" stroke="black" d="M304.73,-35.42C301.81,-52.79 303.52,-72 309.85,-72 314.94,-72 317.04,-59.56 316.15,-45.65"/>
<polygon fill="black" stroke="black" points="314.97,-35.42 320.58,-44.84 315.54,-40.39 316.11,-45.35 316.11,-45.35 316.11,-45.35 315.54,-40.39 311.64,-45.87 314.97,-35.42 314.97,-35.42"/>
<text text-anchor="middle" x="309.85" y="-75.8" font-family="Times New Roman,serif" font-size="14.00">11L</text>
</g>
<!-- D&#45;&gt;D -->
<g id="edge12" class="edge">
<title>D&#45;&gt;D</title>
<path fill="none" stroke="black" d="M303.54,-34.99C297.38,-59.52 299.49,-90 309.85,-90 318.83,-90 321.61,-67.08 318.17,-44.99"/>
<polygon fill="black" stroke="black" points="316.16,-34.99 322.55,-43.91 317.15,-39.89 318.13,-44.8 318.13,-44.8 318.13,-44.8 317.15,-39.89 313.72,-45.68 316.16,-34.99 316.16,-34.99"/>
<text text-anchor="middle" x="309.85" y="-93.8" font-family="Times New Roman,serif" font-size="14.00">XXL</text>
</g>
<!-- B&#45;&gt;D -->
<g id="edge5" class="edge">
<title>B&#45;&gt;D</title>
<path fill="none" stroke="black" d="M219.69,-133.19C236.94,-110.91 271.07,-66.81 291.74,-40.11"/>
<polygon fill="black" stroke="black" points="297.94,-32.1 295.37,-42.76 294.88,-36.05 291.82,-40 291.82,-40 291.82,-40 294.88,-36.05 288.26,-37.25 297.94,-32.1 297.94,-32.1"/>
<text text-anchor="middle" x="256.5" y="-104.8" font-family="Times New Roman,serif" font-size="14.00">1XL</text>
</g>
<!-- B&#45;&gt;B -->
<g id="edge4" class="edge">
<title>B&#45;&gt;B</title>
<path fill="none" stroke="black" d="M203.69,-164.78C202.95,-174.31 204.39,-183 208,-183 210.2,-183 211.59,-179.77 212.18,-175.1"/>
<polygon fill="black" stroke="black" points="212.31,-164.78 216.68,-174.84 212.25,-169.78 212.18,-174.78 212.18,-174.78 212.18,-174.78 212.25,-169.78 207.68,-174.72 212.31,-164.78 212.31,-164.78"/>
<text text-anchor="middle" x="208" y="-186.8" font-family="Times New Roman,serif" font-size="14.00">00R</text>
</g>
<!-- B&#45;&gt;B -->
<g id="edge6" class="edge">
<title>B&#45;&gt;B</title>
<path fill="none" stroke="black" d="M201.04,-163.86C196.82,-181.38 199.14,-201 208,-201 215.2,-201 218.08,-188.05 216.64,-173.79"/>
<polygon fill="black" stroke="black" points="214.96,-163.86 221.07,-172.97 215.79,-168.79 216.63,-173.72 216.63,-173.72 216.63,-173.72 215.79,-168.79 212.19,-174.48 214.96,-163.86 214.96,-163.86"/>
<text text-anchor="middle" x="208" y="-204.8" font-family="Times New Roman,serif" font-size="14.00">XXR</text>
</g>
<!-- ha -->
<g id="node6" class="node">
<title>ha</title>
<ellipse fill="none" stroke="black" cx="309.85" cy="-176" rx="18.72" ry="18.72"/>
<ellipse fill="none" stroke="black" cx="309.85" cy="-176" rx="22.7" ry="22.7"/>
<text text-anchor="middle" x="309.85" y="-172.3" font-family="Times New Roman,serif" font-size="14.00">ha</text>
</g>
<!-- B&#45;&gt;ha -->
<g id="edge14" class="edge">
<title>B&#45;&gt;ha</title>
<path fill="none" stroke="black" d="M225.49,-151.79C239.75,-155.93 260.75,-162.03 278.1,-167.07"/>
<polygon fill="black" stroke="black" points="287.82,-169.89 276.96,-171.42 283.02,-168.5 278.21,-167.1 278.21,-167.1 278.21,-167.1 283.02,-168.5 279.47,-162.78 287.82,-169.89 287.82,-169.89"/>
<text text-anchor="middle" x="256.5" y="-167.8" font-family="Times New Roman,serif" font-size="14.00">$$R</text>
</g>
<!-- C&#45;&gt;D -->
<g id="edge9" class="edge">
<title>C&#45;&gt;D</title>
<path fill="none" stroke="black" d="M225.04,-53.25C240.84,-46.61 265.2,-36.36 283.59,-28.62"/>
<polygon fill="black" stroke="black" points="292.85,-24.73 285.37,-32.76 288.24,-26.67 283.63,-28.61 283.63,-28.61 283.63,-28.61 288.24,-26.67 281.88,-24.46 292.85,-24.73 292.85,-24.73"/>
<text text-anchor="middle" x="256.5" y="-49.8" font-family="Times New Roman,serif" font-size="14.00">0XL</text>
</g>
<!-- C&#45;&gt;C -->
<g id="edge8" class="edge">
<title>C&#45;&gt;C</title>
<path fill="none" stroke="black" d="M199.64,-76.29C197.62,-86.39 200.41,-96 208,-96 212.86,-96 215.76,-92.06 216.68,-86.57"/>
<polygon fill="black" stroke="black" points="216.36,-76.29 221.17,-86.15 216.52,-81.29 216.67,-86.29 216.67,-86.29 216.67,-86.29 216.52,-81.29 212.17,-86.42 216.36,-76.29 216.36,-76.29"/>
<text text-anchor="middle" x="208" y="-99.8" font-family="Times New Roman,serif" font-size="14.00">11R</text>
</g>
</g>
</svg>
